# xmcd
# 
# Track frame offsets:
#     182
#     32310
#     61442
#     88472
#     122132
#     174827
#     211057
#     245957
#     262867
#     277662
#     288402
# 
# Disc length: 4380
# 
# Revision: 11
# Processed by: cddbd v1.5.2PL0 Copyright (c) Steve Scherf et al.
# Submitted via: fre:ac v1.0.31
# 
DISCID=97111a0b
DTITLE=King Crimson - Epitaph Volume One
DYEAR=1997
DGENRE=Progressive Rock
TTITLE0=21st Century Schizoid Man [BBC radio sessions]
TTITLE1=In the Court of the Crimson King [BBC radio sessions]
TTITLE2=Get Thy Bearings [BBC radio sessions]
TTITLE3=Epitaph [BBC radio sessions]
TTITLE4=A Man, A City [Fillmore East 1969]
TTITLE5=Epitaph [Fillmore East 1969]
TTITLE6=21st Century Schizoid Man [Fillmore East 1969]
TTITLE7=Mantra [Fillmore West 1969]
TTITLE8=Travel Weary Capricorn [Fillmore West 1969]
TTITLE9=Improvisation - Travel Bleary Capricorn [Fillmore West 1969]
TTITLE10=Mars [Fillmore West 1969]
EXTD=Tracks 1-4 are BBS Radio Sessions\nTracks 5-7 are Fillmore East, New Yourk, 21 November 1969\nTracks 8-11 are Fillmore West, San Francisco, 14 December 1969 YEAR: 1969
EXTT0=
EXTT1=
EXTT2=
EXTT3=
EXTT4=
EXTT5=
EXTT6=
EXTT7=
EXTT8=
EXTT9=
EXTT10=
PLAYORDER=
